<mxfile host="app.diagrams.net" modified="2023-11-30T15:25:19.787Z" agent="Mozilla/5.0 (Windows NT 10.0; Win64; x64) AppleWebKit/537.36 (KHTML, like Gecko) Chrome/119.0.0.0 Safari/537.36" etag="0owyooGVqdYJTfW6hhCV" version="22.1.5" type="github">
  <diagram name="Page-1" id="e7e014a7-5840-1c2e-5031-d8a46d1fe8dd">
    <mxGraphModel dx="1050" dy="522" grid="1" gridSize="10" guides="1" tooltips="1" connect="1" arrows="1" fold="1" page="1" pageScale="1" pageWidth="1169" pageHeight="826" background="none" math="0" shadow="0">
      <root>
        <mxCell id="0" />
        <mxCell id="1" parent="0" />
        <mxCell id="ZWdWtUtq92A_jyRvt9Fo-41" value="" style="ellipse;html=1;shape=startState;fillColor=#000000;strokeColor=#ff0000;" vertex="1" parent="1">
          <mxGeometry x="120" y="210" width="30" height="30" as="geometry" />
        </mxCell>
        <mxCell id="ZWdWtUtq92A_jyRvt9Fo-42" value="" style="edgeStyle=orthogonalEdgeStyle;html=1;verticalAlign=bottom;endArrow=open;endSize=8;strokeColor=#000000;rounded=0;entryX=0;entryY=0.5;entryDx=0;entryDy=0;" edge="1" source="ZWdWtUtq92A_jyRvt9Fo-41" parent="1" target="ZWdWtUtq92A_jyRvt9Fo-43">
          <mxGeometry relative="1" as="geometry">
            <mxPoint x="220" y="225" as="targetPoint" />
          </mxGeometry>
        </mxCell>
        <mxCell id="ZWdWtUtq92A_jyRvt9Fo-46" style="rounded=0;orthogonalLoop=1;jettySize=auto;html=1;entryX=1;entryY=0.5;entryDx=0;entryDy=0;endArrow=open;endFill=0;" edge="1" parent="1" source="ZWdWtUtq92A_jyRvt9Fo-43" target="ZWdWtUtq92A_jyRvt9Fo-45">
          <mxGeometry relative="1" as="geometry" />
        </mxCell>
        <mxCell id="ZWdWtUtq92A_jyRvt9Fo-50" style="edgeStyle=orthogonalEdgeStyle;rounded=0;orthogonalLoop=1;jettySize=auto;html=1;entryX=0;entryY=0.5;entryDx=0;entryDy=0;endArrow=open;endFill=0;" edge="1" parent="1" source="ZWdWtUtq92A_jyRvt9Fo-43" target="ZWdWtUtq92A_jyRvt9Fo-49">
          <mxGeometry relative="1" as="geometry" />
        </mxCell>
        <mxCell id="ZWdWtUtq92A_jyRvt9Fo-43" value="Unauthorized" style="rounded=1;whiteSpace=wrap;html=1;" vertex="1" parent="1">
          <mxGeometry x="340" y="195" width="120" height="60" as="geometry" />
        </mxCell>
        <mxCell id="ZWdWtUtq92A_jyRvt9Fo-44" value="[user enters website&lt;br&gt;for the first time]" style="text;html=1;align=center;verticalAlign=middle;resizable=0;points=[];autosize=1;strokeColor=none;fillColor=none;" vertex="1" parent="1">
          <mxGeometry x="175" y="189" width="130" height="40" as="geometry" />
        </mxCell>
        <mxCell id="ZWdWtUtq92A_jyRvt9Fo-45" value="" style="ellipse;html=1;shape=endState;fillColor=#000000;strokeColor=#ff0000;" vertex="1" parent="1">
          <mxGeometry x="130" y="350" width="30" height="30" as="geometry" />
        </mxCell>
        <mxCell id="ZWdWtUtq92A_jyRvt9Fo-47" value="[user doesn&#39;t log in]" style="text;html=1;align=center;verticalAlign=middle;resizable=0;points=[];autosize=1;strokeColor=none;fillColor=none;rotation=0;" vertex="1" parent="1">
          <mxGeometry x="190" y="285" width="130" height="30" as="geometry" />
        </mxCell>
        <mxCell id="ZWdWtUtq92A_jyRvt9Fo-52" style="rounded=0;orthogonalLoop=1;jettySize=auto;html=1;entryX=1;entryY=0.5;entryDx=0;entryDy=0;endArrow=open;endFill=0;" edge="1" parent="1" source="ZWdWtUtq92A_jyRvt9Fo-49" target="ZWdWtUtq92A_jyRvt9Fo-45">
          <mxGeometry relative="1" as="geometry" />
        </mxCell>
        <mxCell id="ZWdWtUtq92A_jyRvt9Fo-56" style="edgeStyle=orthogonalEdgeStyle;rounded=0;orthogonalLoop=1;jettySize=auto;html=1;entryX=0.5;entryY=0;entryDx=0;entryDy=0;" edge="1" parent="1" source="ZWdWtUtq92A_jyRvt9Fo-49" target="ZWdWtUtq92A_jyRvt9Fo-55">
          <mxGeometry relative="1" as="geometry" />
        </mxCell>
        <mxCell id="ZWdWtUtq92A_jyRvt9Fo-49" value="Authorized&lt;br&gt;(Unregistered)" style="rounded=1;whiteSpace=wrap;html=1;" vertex="1" parent="1">
          <mxGeometry x="585" y="195" width="120" height="60" as="geometry" />
        </mxCell>
        <mxCell id="ZWdWtUtq92A_jyRvt9Fo-51" value="[user logs in through&lt;br&gt;Google Account]" style="text;html=1;align=center;verticalAlign=middle;resizable=0;points=[];autosize=1;strokeColor=none;fillColor=none;" vertex="1" parent="1">
          <mxGeometry x="459" y="189" width="130" height="40" as="geometry" />
        </mxCell>
        <mxCell id="ZWdWtUtq92A_jyRvt9Fo-53" value="[user doesn&#39;t register]" style="text;html=1;align=center;verticalAlign=middle;resizable=0;points=[];autosize=1;strokeColor=none;fillColor=none;rotation=0;" vertex="1" parent="1">
          <mxGeometry x="330" y="280" width="140" height="30" as="geometry" />
        </mxCell>
        <mxCell id="ZWdWtUtq92A_jyRvt9Fo-58" style="edgeStyle=orthogonalEdgeStyle;rounded=0;orthogonalLoop=1;jettySize=auto;html=1;endArrow=open;endFill=0;" edge="1" parent="1" source="ZWdWtUtq92A_jyRvt9Fo-55">
          <mxGeometry relative="1" as="geometry">
            <mxPoint x="160" y="365" as="targetPoint" />
          </mxGeometry>
        </mxCell>
        <mxCell id="ZWdWtUtq92A_jyRvt9Fo-55" value="Registered" style="rounded=1;whiteSpace=wrap;html=1;" vertex="1" parent="1">
          <mxGeometry x="585" y="335" width="120" height="60" as="geometry" />
        </mxCell>
        <mxCell id="ZWdWtUtq92A_jyRvt9Fo-57" value="[user registers]" style="text;html=1;align=center;verticalAlign=middle;resizable=0;points=[];autosize=1;strokeColor=none;fillColor=none;rotation=0;" vertex="1" parent="1">
          <mxGeometry x="595" y="280" width="100" height="30" as="geometry" />
        </mxCell>
        <mxCell id="ZWdWtUtq92A_jyRvt9Fo-59" value="[user doesn&#39;t do anything else]" style="text;html=1;align=center;verticalAlign=middle;resizable=0;points=[];autosize=1;strokeColor=none;fillColor=none;rotation=0;" vertex="1" parent="1">
          <mxGeometry x="310" y="335" width="190" height="30" as="geometry" />
        </mxCell>
      </root>
    </mxGraphModel>
  </diagram>
</mxfile>
